<?xml version="1.0" standalone="no"?>
<!DOCTYPE svg PUBLIC "-//W3C//DTD SVG 20010904//EN"
 "http://www.w3.org/TR/2001/REC-SVG-20010904/DTD/svg10.dtd">
<svg version="1.0" xmlns="http://www.w3.org/2000/svg"
 width="700.000000pt" height="700.000000pt" viewBox="0 0 700.000000 700.000000"
 preserveAspectRatio="xMidYMid meet">
<metadata>
Created by potrace 1.14, written by Peter Selinger 2001-2017
</metadata>
<g transform="translate(0.000000,700.000000) scale(0.100000,-0.100000)"
fill="#000000" stroke="none">
<path d="M915 4541 c-94 -43 -108 -85 -113 -343 -4 -211 3 -278 35 -345 23
-48 79 -83 146 -90 88 -9 143 4 186 42 43 39 60 84 68 186 l6 69 -70 0 -70 0
-5 -81 c-5 -93 -19 -113 -74 -113 -26 0 -42 7 -55 23 -17 21 -19 44 -19 273
l0 249 25 24 c29 30 64 32 96 6 20 -16 24 -30 27 -95 l4 -76 71 0 70 0 -6 76
c-11 153 -72 214 -212 214 -46 0 -83 -7 -110 -19z"/>
<path d="M1430 4538 c-35 -18 -51 -36 -72 -78 l-28 -54 0 -235 c0 -132 5 -252
10 -273 24 -87 102 -138 210 -138 104 0 169 40 206 125 15 32 19 78 22 235 6
274 -13 356 -91 408 -34 23 -53 27 -126 30 -75 3 -92 0 -131 -20z m171 -97
c24 -19 24 -20 27 -265 2 -203 0 -250 -12 -274 -26 -51 -106 -51 -132 0 -12
24 -14 71 -12 274 3 245 3 246 27 265 13 10 36 19 51 19 15 0 38 -9 51 -19z"/>
<path d="M4412 4539 c-47 -24 -73 -55 -93 -114 -19 -53 -19 -460 -1 -522 28
-93 102 -143 212 -143 104 0 169 40 206 125 14 32 18 79 22 235 6 274 -13 356
-91 408 -35 23 -53 27 -126 30 -72 2 -93 -1 -129 -19z m169 -98 c24 -19 24
-20 27 -265 2 -203 0 -250 -12 -274 -17 -32 -51 -44 -95 -33 -48 13 -51 35
-49 304 3 248 3 249 27 268 30 24 72 24 102 0z"/>
<path d="M5490 4538 c-80 -41 -114 -128 -89 -231 11 -48 22 -62 134 -172 129
-125 144 -151 130 -214 -8 -39 -27 -53 -66 -49 -41 4 -70 42 -76 102 -3 25 -9
46 -13 46 -4 0 -32 -5 -64 -12 l-57 -11 6 -41 c10 -66 52 -142 90 -166 39 -24
124 -36 179 -26 42 8 100 55 123 99 21 41 20 141 -1 192 -11 26 -59 81 -136
157 -117 114 -120 117 -120 160 0 51 14 74 50 83 40 10 76 -25 84 -80 8 -50 6
-49 76 -34 57 12 58 17 35 95 -16 53 -53 96 -98 113 -49 19 -138 13 -187 -11z"/>
<path d="M1880 4160 l0 -390 75 0 75 0 0 180 0 180 70 0 70 0 0 50 0 50 -70 0
-70 0 0 115 0 115 90 0 90 0 0 45 0 45 -165 0 -165 0 0 -390z"/>
<path d="M2280 4160 l0 -390 75 0 75 0 0 180 0 180 70 0 70 0 0 50 0 50 -70 0
-70 0 0 115 0 115 90 0 90 0 0 45 0 45 -165 0 -165 0 0 -390z"/>
<path d="M2680 4160 l0 -390 171 0 170 0 -3 48 -3 47 -92 3 -93 3 0 129 0 130
70 0 70 0 0 50 0 50 -70 0 -70 0 0 110 0 110 90 0 90 0 0 50 0 50 -165 0 -165
0 0 -390z"/>
<path d="M3100 4160 l0 -390 165 0 165 0 0 50 0 50 -95 0 -95 0 0 130 0 130
75 0 75 0 0 50 0 50 -75 0 -75 0 0 110 0 110 95 0 95 0 0 50 0 50 -165 0 -165
0 0 -390z"/>
<path d="M3750 4160 l0 -390 70 0 70 0 0 175 0 175 80 0 80 0 0 -175 0 -175
75 0 75 0 0 390 0 390 -75 0 -75 0 0 -160 0 -160 -80 0 -80 0 0 160 0 160 -70
0 -70 0 0 -390z"/>
<path d="M4862 4223 c3 -317 4 -329 25 -369 32 -61 80 -86 169 -92 118 -7 181
25 221 113 16 35 18 79 21 358 l3 317 -70 0 -71 0 0 -302 c0 -268 -2 -307 -18
-338 -18 -36 -49 -48 -96 -36 -42 11 -46 39 -46 366 l0 310 -71 0 -70 0 3
-327z"/>
<path d="M5890 4160 l0 -390 165 0 165 0 0 50 0 50 -95 0 -96 0 3 128 3 127
73 3 72 3 0 49 0 50 -75 0 -75 0 0 110 0 110 95 0 95 0 0 50 0 50 -165 0 -165
0 0 -390z"/>
<path d="M2430 3365 l0 -135 1070 0 1070 0 0 135 0 135 -1070 0 -1070 0 0
-135z"/>
<path d="M657 2904 c-4 -4 -7 -31 -7 -61 l0 -53 55 0 55 0 0 -290 0 -290 75 0
75 0 0 290 0 290 55 0 56 0 -3 58 -3 57 -176 3 c-96 1 -178 -1 -182 -4z"/>
<path d="M1145 2898 c-3 -7 -32 -157 -65 -333 -33 -176 -62 -328 -64 -337 -4
-16 4 -18 69 -18 l73 0 12 70 12 70 53 0 53 0 7 -57 c10 -85 8 -83 87 -83 68
0 70 1 65 23 -3 12 -29 146 -57 297 -28 151 -55 299 -61 328 l-10 52 -85 0
c-59 0 -86 -4 -89 -12z m124 -435 c1 -8 -12 -13 -34 -13 -43 0 -43 -17 -4 245
1 9 37 -205 38 -232z"/>
<path d="M1527 2903 c-4 -3 -7 -161 -7 -350 l0 -343 75 0 75 0 0 138 c0 123 8
180 22 156 3 -5 27 -73 52 -151 l48 -143 78 0 79 0 -15 43 c-75 206 -114 322
-114 337 0 9 24 76 54 147 79 192 80 173 -2 173 -44 0 -73 -5 -79 -12 -6 -7
-32 -66 -58 -131 -26 -65 -52 -120 -56 -123 -5 -3 -9 56 -9 130 l0 136 -68 0
c-38 0 -72 -3 -75 -7z"/>
<path d="M2010 2560 l0 -350 155 0 155 0 0 50 0 50 -80 0 -80 0 0 105 0 104
63 3 62 3 0 50 0 50 -62 3 -63 3 0 84 0 85 80 0 80 0 0 55 0 55 -155 0 -155 0
0 -350z"/>
<path d="M2578 2905 c-3 -3 23 -95 58 -203 l64 -197 0 -147 0 -148 75 0 75 0
0 139 0 139 65 207 c36 113 65 208 65 210 0 3 -29 5 -65 5 -75 0 -72 4 -105
-123 -13 -48 -26 -84 -30 -80 -4 4 -18 44 -30 88 -34 119 -31 115 -104 115
-34 0 -65 -2 -68 -5z"/>
<path d="M3111 2888 c-78 -40 -85 -67 -89 -310 -3 -225 3 -268 45 -319 37 -43
80 -59 161 -59 95 0 148 28 182 95 23 47 25 62 28 225 5 247 -9 310 -82 364
-22 17 -45 22 -114 24 -75 3 -93 0 -131 -20z m149 -98 c19 -19 20 -33 20 -224
0 -113 -4 -216 -10 -230 -7 -20 -17 -26 -39 -26 -50 0 -55 17 -59 196 -3 90
-1 189 3 219 10 81 44 106 85 65z"/>
<path d="M3530 2623 c0 -258 2 -292 19 -328 32 -71 81 -95 189 -95 88 0 145
27 175 84 21 39 22 54 25 334 l3 292 -75 0 -75 0 -3 -283 c-3 -303 -6 -317
-53 -317 -47 0 -50 15 -55 314 l-5 281 -72 3 -73 3 0 -288z"/>
<path d="M4040 2560 l0 -350 75 0 75 0 0 155 c0 155 0 155 23 155 21 0 25 -11
61 -155 l38 -155 80 0 c71 0 79 2 74 18 -3 9 -24 83 -46 165 l-41 147 34 33
c27 25 37 44 42 80 16 104 -5 174 -66 219 -30 22 -135 38 -256 38 l-93 0 0
-350z m254 224 c35 -35 33 -126 -5 -156 -12 -10 -38 -18 -60 -18 l-39 0 0 95
0 95 44 0 c27 0 51 -6 60 -16z"/>
<path d="M4737 2904 c-4 -4 -7 -31 -7 -61 l0 -53 55 0 55 0 0 -290 0 -290 75
0 75 0 0 290 0 290 55 0 56 0 -3 58 -3 57 -176 3 c-96 1 -178 -1 -182 -4z"/>
<path d="M5160 2560 l0 -350 75 0 75 0 0 350 0 350 -75 0 -75 0 0 -350z"/>
<path d="M5427 2803 c-4 -58 -7 -216 -7 -350 l0 -243 55 0 55 0 1 193 c0 105
4 200 8 211 5 12 13 -15 24 -80 10 -55 27 -150 38 -211 l21 -113 49 0 c27 0
49 1 49 3 0 1 18 99 39 217 l38 215 6 -85 c4 -47 7 -145 7 -217 l0 -133 55 0
55 0 0 193 c0 105 -3 263 -7 350 l-6 157 -73 0 c-40 0 -75 -4 -78 -9 -3 -4
-22 -87 -41 -182 -20 -96 -39 -181 -42 -189 -3 -8 -21 64 -39 160 -18 96 -36
185 -39 198 -5 20 -11 22 -84 22 l-78 0 -6 -107z"/>
<path d="M6027 2904 c-4 -4 -7 -162 -7 -351 l0 -343 160 0 160 0 0 50 0 50
-80 0 -80 0 0 105 0 105 60 0 60 0 0 55 0 55 -60 0 -60 0 0 85 0 85 81 0 80 0
-3 53 -3 52 -151 3 c-82 1 -153 -1 -157 -4z"/>
</g>
</svg>
